<mxfile host="app.diagrams.net" modified="2023-09-26T19:35:29.030Z" agent="Mozilla/5.0 (Windows NT 10.0; Win64; x64) AppleWebKit/537.36 (KHTML, like Gecko) Chrome/116.0.0.0 Safari/537.36" etag="33k272mMnVfURjpNAI7u" version="21.8.2" type="device" pages="2">
  <diagram name="Page-1" id="2cc2dc42-3aac-f2a9-1cec-7a8b7cbee084">
    <mxGraphModel dx="1173" dy="637" grid="1" gridSize="10" guides="1" tooltips="1" connect="1" arrows="1" fold="1" page="1" pageScale="1" pageWidth="1100" pageHeight="850" background="#ffffff" math="0" shadow="0">
      <root>
        <mxCell id="0" />
        <mxCell id="1" parent="0" />
        <mxCell id="uxA0Q402SmUDYJ3I3k5y-1" value="" style="strokeWidth=1;shadow=0;dashed=0;align=center;html=1;shape=mxgraph.mockup.containers.browserWindow;rSize=0;strokeColor2=#008cff;strokeColor3=#c4c4c4;mainText=,;recursiveResize=0;hachureGap=4;fontFamily=Architects Daughter;fontSource=https%3A%2F%2Ffonts.googleapis.com%2Fcss%3Ffamily%3DArchitects%2BDaughter;fontSize=20;rounded=1;labelBackgroundColor=none;" vertex="1" parent="1">
          <mxGeometry x="170" y="10" width="780" height="830" as="geometry" />
        </mxCell>
        <mxCell id="uxA0Q402SmUDYJ3I3k5y-2" value="Page 1" style="strokeWidth=1;shadow=0;dashed=0;align=center;html=1;shape=mxgraph.mockup.containers.anchor;fontSize=17;align=left;whiteSpace=wrap;hachureGap=4;fontFamily=Architects Daughter;fontSource=https%3A%2F%2Ffonts.googleapis.com%2Fcss%3Ffamily%3DArchitects%2BDaughter;rounded=1;labelBackgroundColor=none;" vertex="1" parent="uxA0Q402SmUDYJ3I3k5y-1">
          <mxGeometry x="60" y="12" width="110" height="26" as="geometry" />
        </mxCell>
        <mxCell id="uxA0Q402SmUDYJ3I3k5y-3" value="https://www.draw.io" style="strokeWidth=1;shadow=0;dashed=0;align=center;html=1;shape=mxgraph.mockup.containers.anchor;rSize=0;fontSize=17;align=left;hachureGap=4;fontFamily=Architects Daughter;fontSource=https%3A%2F%2Ffonts.googleapis.com%2Fcss%3Ffamily%3DArchitects%2BDaughter;rounded=1;labelBackgroundColor=none;" vertex="1" parent="uxA0Q402SmUDYJ3I3k5y-1">
          <mxGeometry x="130" y="60" width="250" height="26" as="geometry" />
        </mxCell>
        <mxCell id="uxA0Q402SmUDYJ3I3k5y-4" value="" style="verticalLabelPosition=bottom;verticalAlign=top;html=1;shape=mxgraph.basic.rect;fillColor2=none;strokeWidth=1;size=20;indent=5;hachureGap=4;fontFamily=Architects Daughter;fontSource=https%3A%2F%2Ffonts.googleapis.com%2Fcss%3Ffamily%3DArchitects%2BDaughter;fontSize=20;rounded=1;labelBackgroundColor=none;" vertex="1" parent="uxA0Q402SmUDYJ3I3k5y-1">
          <mxGeometry x="10" y="110" width="760" height="60" as="geometry" />
        </mxCell>
        <mxCell id="uxA0Q402SmUDYJ3I3k5y-5" value="" style="shape=partialRectangle;whiteSpace=wrap;html=1;bottom=0;top=0;fillColor=none;hachureGap=4;fontFamily=Architects Daughter;fontSource=https%3A%2F%2Ffonts.googleapis.com%2Fcss%3Ffamily%3DArchitects%2BDaughter;fontSize=20;rounded=1;labelBackgroundColor=none;" vertex="1" parent="uxA0Q402SmUDYJ3I3k5y-1">
          <mxGeometry x="30" y="120" width="100" height="40" as="geometry" />
        </mxCell>
        <mxCell id="uxA0Q402SmUDYJ3I3k5y-8" value="" style="shape=partialRectangle;whiteSpace=wrap;html=1;bottom=0;top=0;fillColor=none;hachureGap=4;fontFamily=Architects Daughter;fontSource=https%3A%2F%2Ffonts.googleapis.com%2Fcss%3Ffamily%3DArchitects%2BDaughter;fontSize=20;rounded=1;labelBackgroundColor=none;" vertex="1" parent="uxA0Q402SmUDYJ3I3k5y-1">
          <mxGeometry x="130" y="120" width="100" height="40" as="geometry" />
        </mxCell>
        <mxCell id="uxA0Q402SmUDYJ3I3k5y-9" value="" style="shape=partialRectangle;whiteSpace=wrap;html=1;bottom=0;top=0;fillColor=none;hachureGap=4;fontFamily=Architects Daughter;fontSource=https%3A%2F%2Ffonts.googleapis.com%2Fcss%3Ffamily%3DArchitects%2BDaughter;fontSize=20;rounded=1;labelBackgroundColor=none;" vertex="1" parent="uxA0Q402SmUDYJ3I3k5y-1">
          <mxGeometry x="230" y="120" width="100" height="40" as="geometry" />
        </mxCell>
        <mxCell id="uxA0Q402SmUDYJ3I3k5y-10" value="" style="shape=partialRectangle;whiteSpace=wrap;html=1;bottom=0;top=0;fillColor=none;hachureGap=4;fontFamily=Architects Daughter;fontSource=https%3A%2F%2Ffonts.googleapis.com%2Fcss%3Ffamily%3DArchitects%2BDaughter;fontSize=20;rounded=1;labelBackgroundColor=none;" vertex="1" parent="uxA0Q402SmUDYJ3I3k5y-1">
          <mxGeometry x="330" y="120" width="100" height="40" as="geometry" />
        </mxCell>
        <mxCell id="uxA0Q402SmUDYJ3I3k5y-11" value="" style="shape=partialRectangle;whiteSpace=wrap;html=1;bottom=0;top=0;fillColor=none;hachureGap=4;fontFamily=Architects Daughter;fontSource=https%3A%2F%2Ffonts.googleapis.com%2Fcss%3Ffamily%3DArchitects%2BDaughter;fontSize=20;rounded=1;labelBackgroundColor=none;" vertex="1" parent="uxA0Q402SmUDYJ3I3k5y-1">
          <mxGeometry x="430" y="120" width="100" height="40" as="geometry" />
        </mxCell>
        <mxCell id="uxA0Q402SmUDYJ3I3k5y-12" value="" style="shape=partialRectangle;whiteSpace=wrap;html=1;bottom=0;top=0;fillColor=none;hachureGap=4;fontFamily=Architects Daughter;fontSource=https%3A%2F%2Ffonts.googleapis.com%2Fcss%3Ffamily%3DArchitects%2BDaughter;fontSize=20;rounded=1;labelBackgroundColor=none;" vertex="1" parent="uxA0Q402SmUDYJ3I3k5y-1">
          <mxGeometry x="530" y="120" width="100" height="40" as="geometry" />
        </mxCell>
        <mxCell id="uxA0Q402SmUDYJ3I3k5y-13" value="" style="shape=partialRectangle;whiteSpace=wrap;html=1;bottom=0;top=0;fillColor=none;hachureGap=4;fontFamily=Architects Daughter;fontSource=https%3A%2F%2Ffonts.googleapis.com%2Fcss%3Ffamily%3DArchitects%2BDaughter;fontSize=20;rounded=1;labelBackgroundColor=none;" vertex="1" parent="uxA0Q402SmUDYJ3I3k5y-1">
          <mxGeometry x="630" y="120" width="100" height="40" as="geometry" />
        </mxCell>
        <mxCell id="uxA0Q402SmUDYJ3I3k5y-18" value="Title" style="text;strokeColor=none;fillColor=none;html=1;fontSize=24;fontStyle=1;verticalAlign=middle;align=center;" vertex="1" parent="uxA0Q402SmUDYJ3I3k5y-1">
          <mxGeometry x="30" y="120" width="100" height="40" as="geometry" />
        </mxCell>
        <mxCell id="uxA0Q402SmUDYJ3I3k5y-19" value="Title" style="text;strokeColor=none;fillColor=none;html=1;fontSize=24;fontStyle=1;verticalAlign=middle;align=center;" vertex="1" parent="uxA0Q402SmUDYJ3I3k5y-1">
          <mxGeometry x="130" y="120" width="100" height="40" as="geometry" />
        </mxCell>
        <mxCell id="uxA0Q402SmUDYJ3I3k5y-20" value="Title" style="text;strokeColor=none;fillColor=none;html=1;fontSize=24;fontStyle=1;verticalAlign=middle;align=center;" vertex="1" parent="uxA0Q402SmUDYJ3I3k5y-1">
          <mxGeometry x="230" y="120" width="100" height="40" as="geometry" />
        </mxCell>
        <mxCell id="uxA0Q402SmUDYJ3I3k5y-21" value="Title" style="text;strokeColor=none;fillColor=none;html=1;fontSize=24;fontStyle=1;verticalAlign=middle;align=center;" vertex="1" parent="uxA0Q402SmUDYJ3I3k5y-1">
          <mxGeometry x="330" y="120" width="100" height="40" as="geometry" />
        </mxCell>
        <mxCell id="uxA0Q402SmUDYJ3I3k5y-22" value="Title" style="text;strokeColor=none;fillColor=none;html=1;fontSize=24;fontStyle=1;verticalAlign=middle;align=center;" vertex="1" parent="uxA0Q402SmUDYJ3I3k5y-1">
          <mxGeometry x="430" y="120" width="100" height="40" as="geometry" />
        </mxCell>
        <mxCell id="uxA0Q402SmUDYJ3I3k5y-23" value="Title" style="text;strokeColor=none;fillColor=none;html=1;fontSize=24;fontStyle=1;verticalAlign=middle;align=center;" vertex="1" parent="uxA0Q402SmUDYJ3I3k5y-1">
          <mxGeometry x="530" y="120" width="100" height="40" as="geometry" />
        </mxCell>
        <mxCell id="uxA0Q402SmUDYJ3I3k5y-24" value="Title" style="text;strokeColor=none;fillColor=none;html=1;fontSize=24;fontStyle=1;verticalAlign=middle;align=center;" vertex="1" parent="uxA0Q402SmUDYJ3I3k5y-1">
          <mxGeometry x="630" y="120" width="100" height="40" as="geometry" />
        </mxCell>
        <mxCell id="uxA0Q402SmUDYJ3I3k5y-30" value="" style="verticalLabelPosition=bottom;shadow=0;dashed=0;align=center;html=1;verticalAlign=top;strokeWidth=1;shape=mxgraph.mockup.graphics.simpleIcon;strokeColor=#999999;" vertex="1" parent="uxA0Q402SmUDYJ3I3k5y-1">
          <mxGeometry x="100" y="620" width="80" height="70" as="geometry" />
        </mxCell>
        <mxCell id="uxA0Q402SmUDYJ3I3k5y-31" value="" style="verticalLabelPosition=bottom;shadow=0;dashed=0;align=center;html=1;verticalAlign=top;strokeWidth=1;shape=mxgraph.mockup.graphics.simpleIcon;strokeColor=#999999;" vertex="1" parent="uxA0Q402SmUDYJ3I3k5y-1">
          <mxGeometry x="200" y="620" width="80" height="70" as="geometry" />
        </mxCell>
        <mxCell id="uxA0Q402SmUDYJ3I3k5y-32" value="" style="verticalLabelPosition=bottom;shadow=0;dashed=0;align=center;html=1;verticalAlign=top;strokeWidth=1;shape=mxgraph.mockup.graphics.simpleIcon;strokeColor=#999999;" vertex="1" parent="uxA0Q402SmUDYJ3I3k5y-1">
          <mxGeometry x="300" y="620" width="80" height="70" as="geometry" />
        </mxCell>
        <mxCell id="uxA0Q402SmUDYJ3I3k5y-33" value="" style="verticalLabelPosition=bottom;shadow=0;dashed=0;align=center;html=1;verticalAlign=top;strokeWidth=1;shape=mxgraph.mockup.graphics.simpleIcon;strokeColor=#999999;" vertex="1" parent="uxA0Q402SmUDYJ3I3k5y-1">
          <mxGeometry x="400" y="620" width="80" height="70" as="geometry" />
        </mxCell>
        <mxCell id="uxA0Q402SmUDYJ3I3k5y-34" value="" style="verticalLabelPosition=bottom;shadow=0;dashed=0;align=center;html=1;verticalAlign=top;strokeWidth=1;shape=mxgraph.mockup.graphics.simpleIcon;strokeColor=#999999;" vertex="1" parent="uxA0Q402SmUDYJ3I3k5y-1">
          <mxGeometry x="500" y="620" width="80" height="70" as="geometry" />
        </mxCell>
        <mxCell id="uxA0Q402SmUDYJ3I3k5y-35" value="" style="verticalLabelPosition=bottom;shadow=0;dashed=0;align=center;html=1;verticalAlign=top;strokeWidth=1;shape=mxgraph.mockup.graphics.simpleIcon;strokeColor=#999999;" vertex="1" parent="uxA0Q402SmUDYJ3I3k5y-1">
          <mxGeometry x="600" y="620" width="80" height="70" as="geometry" />
        </mxCell>
        <mxCell id="uxA0Q402SmUDYJ3I3k5y-40" value="" style="html=1;shadow=0;dashed=0;align=center;verticalAlign=middle;shape=mxgraph.arrows2.arrow;dy=0.6;dx=40;notch=0;" vertex="1" parent="uxA0Q402SmUDYJ3I3k5y-1">
          <mxGeometry x="700" y="620" width="50" height="70" as="geometry" />
        </mxCell>
        <mxCell id="uxA0Q402SmUDYJ3I3k5y-41" value="" style="html=1;shadow=0;dashed=0;align=center;verticalAlign=middle;shape=mxgraph.arrows2.arrow;dy=0.6;dx=40;flipH=1;notch=0;" vertex="1" parent="uxA0Q402SmUDYJ3I3k5y-1">
          <mxGeometry x="30" y="620" width="50" height="70" as="geometry" />
        </mxCell>
        <mxCell id="uxA0Q402SmUDYJ3I3k5y-43" value="&lt;h1&gt;Heading&lt;/h1&gt;&lt;p&gt;Lorem ipsum dolor sit amet, consectetur adipisicing elit, sed do eiusmod tempor incididunt ut labore et dolore magna aliqua.&lt;/p&gt;" style="text;html=1;strokeColor=none;fillColor=none;spacing=5;spacingTop=-20;whiteSpace=wrap;overflow=hidden;rounded=0;align=center;" vertex="1" parent="uxA0Q402SmUDYJ3I3k5y-1">
          <mxGeometry x="10" y="700" width="760" height="120" as="geometry" />
        </mxCell>
        <mxCell id="uxA0Q402SmUDYJ3I3k5y-25" value="" style="verticalLabelPosition=bottom;shadow=0;dashed=0;align=center;html=1;verticalAlign=top;strokeWidth=1;shape=mxgraph.mockup.graphics.simpleIcon;strokeColor=#999999;" vertex="1" parent="1">
          <mxGeometry x="190" y="190" width="750" height="430" as="geometry" />
        </mxCell>
        <mxCell id="uxA0Q402SmUDYJ3I3k5y-26" value="Text" style="text;strokeColor=none;align=center;fillColor=none;html=1;verticalAlign=middle;whiteSpace=wrap;rounded=0;fontStyle=1;fontSize=81;" vertex="1" parent="1">
          <mxGeometry x="220" y="210" width="690" height="100" as="geometry" />
        </mxCell>
        <mxCell id="uxA0Q402SmUDYJ3I3k5y-28" value="Text" style="text;strokeColor=none;align=center;fillColor=none;html=1;verticalAlign=middle;whiteSpace=wrap;rounded=0;fontSize=54;" vertex="1" parent="1">
          <mxGeometry x="210" y="490" width="710" height="110" as="geometry" />
        </mxCell>
      </root>
    </mxGraphModel>
  </diagram>
  <diagram id="hqLwiAxn_-rZ_YrtuC7s" name="Página-2">
    <mxGraphModel dx="1760" dy="956" grid="1" gridSize="10" guides="1" tooltips="1" connect="1" arrows="1" fold="1" page="1" pageScale="1" pageWidth="827" pageHeight="1169" math="0" shadow="0">
      <root>
        <mxCell id="0" />
        <mxCell id="1" parent="0" />
        <mxCell id="2fVoNbV49NTo3NU8jfSZ-1" value="" style="strokeWidth=1;shadow=0;dashed=0;align=center;html=1;shape=mxgraph.mockup.containers.browserWindow;rSize=0;strokeColor=#666666;strokeColor2=#008cff;strokeColor3=#c4c4c4;mainText=,;recursiveResize=0;" vertex="1" parent="1">
          <mxGeometry x="35" y="60" width="770" height="1160" as="geometry" />
        </mxCell>
        <mxCell id="2fVoNbV49NTo3NU8jfSZ-2" value="Page 1" style="strokeWidth=1;shadow=0;dashed=0;align=center;html=1;shape=mxgraph.mockup.containers.anchor;fontSize=17;fontColor=#666666;align=left;whiteSpace=wrap;" vertex="1" parent="2fVoNbV49NTo3NU8jfSZ-1">
          <mxGeometry x="60" y="12" width="110" height="26" as="geometry" />
        </mxCell>
        <mxCell id="2fVoNbV49NTo3NU8jfSZ-3" value="https://www.draw.io" style="strokeWidth=1;shadow=0;dashed=0;align=center;html=1;shape=mxgraph.mockup.containers.anchor;rSize=0;fontSize=17;fontColor=#666666;align=left;" vertex="1" parent="2fVoNbV49NTo3NU8jfSZ-1">
          <mxGeometry x="130" y="60" width="250" height="26" as="geometry" />
        </mxCell>
        <mxCell id="2fVoNbV49NTo3NU8jfSZ-4" value="" style="verticalLabelPosition=bottom;shadow=0;dashed=0;align=center;html=1;verticalAlign=top;strokeWidth=1;shape=mxgraph.mockup.graphics.simpleIcon;strokeColor=#999999;" vertex="1" parent="2fVoNbV49NTo3NU8jfSZ-1">
          <mxGeometry x="30" y="130" width="180" height="210" as="geometry" />
        </mxCell>
        <mxCell id="2fVoNbV49NTo3NU8jfSZ-5" value="" style="verticalLabelPosition=bottom;shadow=0;dashed=0;align=center;html=1;verticalAlign=top;strokeWidth=1;shape=mxgraph.mockup.graphics.simpleIcon;strokeColor=#999999;" vertex="1" parent="2fVoNbV49NTo3NU8jfSZ-1">
          <mxGeometry x="300" y="130" width="180" height="210" as="geometry" />
        </mxCell>
        <mxCell id="2fVoNbV49NTo3NU8jfSZ-6" value="" style="verticalLabelPosition=bottom;shadow=0;dashed=0;align=center;html=1;verticalAlign=top;strokeWidth=1;shape=mxgraph.mockup.graphics.simpleIcon;strokeColor=#999999;" vertex="1" parent="2fVoNbV49NTo3NU8jfSZ-1">
          <mxGeometry x="570" y="130" width="170" height="210" as="geometry" />
        </mxCell>
        <mxCell id="2fVoNbV49NTo3NU8jfSZ-7" value="" style="verticalLabelPosition=bottom;shadow=0;dashed=0;align=center;html=1;verticalAlign=top;strokeWidth=1;shape=mxgraph.mockup.graphics.simpleIcon;strokeColor=#999999;" vertex="1" parent="2fVoNbV49NTo3NU8jfSZ-1">
          <mxGeometry x="35" y="490" width="180" height="210" as="geometry" />
        </mxCell>
        <mxCell id="2fVoNbV49NTo3NU8jfSZ-8" value="" style="verticalLabelPosition=bottom;shadow=0;dashed=0;align=center;html=1;verticalAlign=top;strokeWidth=1;shape=mxgraph.mockup.graphics.simpleIcon;strokeColor=#999999;" vertex="1" parent="2fVoNbV49NTo3NU8jfSZ-1">
          <mxGeometry x="300" y="490" width="180" height="210" as="geometry" />
        </mxCell>
        <mxCell id="2fVoNbV49NTo3NU8jfSZ-9" value="" style="verticalLabelPosition=bottom;shadow=0;dashed=0;align=center;html=1;verticalAlign=top;strokeWidth=1;shape=mxgraph.mockup.graphics.simpleIcon;strokeColor=#999999;" vertex="1" parent="2fVoNbV49NTo3NU8jfSZ-1">
          <mxGeometry x="570" y="490" width="170" height="210" as="geometry" />
        </mxCell>
        <mxCell id="2fVoNbV49NTo3NU8jfSZ-10" value="" style="rounded=0;whiteSpace=wrap;html=1;" vertex="1" parent="2fVoNbV49NTo3NU8jfSZ-1">
          <mxGeometry x="35" y="860" width="710" height="60" as="geometry" />
        </mxCell>
        <mxCell id="2fVoNbV49NTo3NU8jfSZ-13" value="&lt;h1&gt;Heading&lt;/h1&gt;&lt;p&gt;Lorem ipsum dolor sit amet, consectetur adipisicing elit, sed do eiusmod tempor incididunt ut labore et dolore magna aliqua.&lt;/p&gt;" style="text;html=1;strokeColor=none;fillColor=none;spacing=5;spacingTop=-20;whiteSpace=wrap;overflow=hidden;rounded=0;" vertex="1" parent="2fVoNbV49NTo3NU8jfSZ-1">
          <mxGeometry x="30" y="340" width="190" height="120" as="geometry" />
        </mxCell>
        <mxCell id="2fVoNbV49NTo3NU8jfSZ-14" value="&lt;h1&gt;Heading&lt;/h1&gt;&lt;p&gt;Lorem ipsum dolor sit amet, consectetur adipisicing elit, sed do eiusmod tempor incididunt ut labore et dolore magna aliqua.&lt;/p&gt;" style="text;html=1;strokeColor=none;fillColor=none;spacing=5;spacingTop=-20;whiteSpace=wrap;overflow=hidden;rounded=0;" vertex="1" parent="2fVoNbV49NTo3NU8jfSZ-1">
          <mxGeometry x="300" y="340" width="190" height="120" as="geometry" />
        </mxCell>
        <mxCell id="2fVoNbV49NTo3NU8jfSZ-15" value="&lt;h1&gt;Heading&lt;/h1&gt;&lt;p&gt;Lorem ipsum dolor sit amet, consectetur adipisicing elit, sed do eiusmod tempor incididunt ut labore et dolore magna aliqua.&lt;/p&gt;" style="text;html=1;strokeColor=none;fillColor=none;spacing=5;spacingTop=-20;whiteSpace=wrap;overflow=hidden;rounded=0;" vertex="1" parent="2fVoNbV49NTo3NU8jfSZ-1">
          <mxGeometry x="560" y="340" width="190" height="120" as="geometry" />
        </mxCell>
        <mxCell id="2fVoNbV49NTo3NU8jfSZ-16" value="&lt;h1&gt;Heading&lt;/h1&gt;&lt;p&gt;Lorem ipsum dolor sit amet, consectetur adipisicing elit, sed do eiusmod tempor incididunt ut labore et dolore magna aliqua.&lt;/p&gt;" style="text;html=1;strokeColor=none;fillColor=none;spacing=5;spacingTop=-20;whiteSpace=wrap;overflow=hidden;rounded=0;" vertex="1" parent="2fVoNbV49NTo3NU8jfSZ-1">
          <mxGeometry x="35" y="700" width="190" height="120" as="geometry" />
        </mxCell>
        <mxCell id="2fVoNbV49NTo3NU8jfSZ-17" value="&lt;h1&gt;Heading&lt;/h1&gt;&lt;p&gt;Lorem ipsum dolor sit amet, consectetur adipisicing elit, sed do eiusmod tempor incididunt ut labore et dolore magna aliqua.&lt;/p&gt;" style="text;html=1;strokeColor=none;fillColor=none;spacing=5;spacingTop=-20;whiteSpace=wrap;overflow=hidden;rounded=0;" vertex="1" parent="2fVoNbV49NTo3NU8jfSZ-1">
          <mxGeometry x="300" y="700" width="190" height="120" as="geometry" />
        </mxCell>
        <mxCell id="2fVoNbV49NTo3NU8jfSZ-18" value="&lt;h1&gt;Heading&lt;/h1&gt;&lt;p&gt;Lorem ipsum dolor sit amet, consectetur adipisicing elit, sed do eiusmod tempor incididunt ut labore et dolore magna aliqua.&lt;/p&gt;" style="text;html=1;strokeColor=none;fillColor=none;spacing=5;spacingTop=-20;whiteSpace=wrap;overflow=hidden;rounded=0;" vertex="1" parent="2fVoNbV49NTo3NU8jfSZ-1">
          <mxGeometry x="571" y="700" width="190" height="120" as="geometry" />
        </mxCell>
        <mxCell id="2fVoNbV49NTo3NU8jfSZ-19" value="" style="shape=waypoint;sketch=0;fillStyle=solid;size=6;pointerEvents=1;points=[];fillColor=none;resizable=0;rotatable=0;perimeter=centerPerimeter;snapToPoint=1;" vertex="1" parent="2fVoNbV49NTo3NU8jfSZ-1">
          <mxGeometry x="35" y="950" width="20" height="20" as="geometry" />
        </mxCell>
        <mxCell id="2fVoNbV49NTo3NU8jfSZ-20" value="" style="shape=waypoint;sketch=0;fillStyle=solid;size=6;pointerEvents=1;points=[];fillColor=none;resizable=0;rotatable=0;perimeter=centerPerimeter;snapToPoint=1;" vertex="1" parent="2fVoNbV49NTo3NU8jfSZ-1">
          <mxGeometry x="35" y="990" width="20" height="20" as="geometry" />
        </mxCell>
        <mxCell id="2fVoNbV49NTo3NU8jfSZ-21" value="" style="shape=waypoint;sketch=0;fillStyle=solid;size=6;pointerEvents=1;points=[];fillColor=none;resizable=0;rotatable=0;perimeter=centerPerimeter;snapToPoint=1;" vertex="1" parent="2fVoNbV49NTo3NU8jfSZ-1">
          <mxGeometry x="35" y="1030" width="20" height="20" as="geometry" />
        </mxCell>
        <mxCell id="2fVoNbV49NTo3NU8jfSZ-22" value="" style="shape=waypoint;sketch=0;fillStyle=solid;size=6;pointerEvents=1;points=[];fillColor=none;resizable=0;rotatable=0;perimeter=centerPerimeter;snapToPoint=1;" vertex="1" parent="2fVoNbV49NTo3NU8jfSZ-1">
          <mxGeometry x="200" y="950" width="20" height="20" as="geometry" />
        </mxCell>
        <mxCell id="2fVoNbV49NTo3NU8jfSZ-23" value="" style="shape=waypoint;sketch=0;fillStyle=solid;size=6;pointerEvents=1;points=[];fillColor=none;resizable=0;rotatable=0;perimeter=centerPerimeter;snapToPoint=1;" vertex="1" parent="2fVoNbV49NTo3NU8jfSZ-1">
          <mxGeometry x="200" y="990" width="20" height="20" as="geometry" />
        </mxCell>
        <mxCell id="2fVoNbV49NTo3NU8jfSZ-24" value="" style="shape=waypoint;sketch=0;fillStyle=solid;size=6;pointerEvents=1;points=[];fillColor=none;resizable=0;rotatable=0;perimeter=centerPerimeter;snapToPoint=1;" vertex="1" parent="2fVoNbV49NTo3NU8jfSZ-1">
          <mxGeometry x="35" y="1069" width="20" height="20" as="geometry" />
        </mxCell>
        <mxCell id="2fVoNbV49NTo3NU8jfSZ-26" value="" style="shape=waypoint;sketch=0;fillStyle=solid;size=6;pointerEvents=1;points=[];fillColor=none;resizable=0;rotatable=0;perimeter=centerPerimeter;snapToPoint=1;" vertex="1" parent="2fVoNbV49NTo3NU8jfSZ-1">
          <mxGeometry x="200" y="1030" width="20" height="20" as="geometry" />
        </mxCell>
        <mxCell id="2fVoNbV49NTo3NU8jfSZ-27" value="" style="shape=waypoint;sketch=0;fillStyle=solid;size=6;pointerEvents=1;points=[];fillColor=none;resizable=0;rotatable=0;perimeter=centerPerimeter;snapToPoint=1;" vertex="1" parent="2fVoNbV49NTo3NU8jfSZ-1">
          <mxGeometry x="200" y="1069" width="20" height="20" as="geometry" />
        </mxCell>
        <mxCell id="2fVoNbV49NTo3NU8jfSZ-29" value="Text" style="text;strokeColor=none;align=center;fillColor=none;html=1;verticalAlign=middle;whiteSpace=wrap;rounded=0;fontSize=16;" vertex="1" parent="2fVoNbV49NTo3NU8jfSZ-1">
          <mxGeometry x="41" y="947.5" width="60" height="25" as="geometry" />
        </mxCell>
        <mxCell id="2fVoNbV49NTo3NU8jfSZ-30" value="Text" style="text;strokeColor=none;align=center;fillColor=none;html=1;verticalAlign=middle;whiteSpace=wrap;rounded=0;fontSize=16;" vertex="1" parent="2fVoNbV49NTo3NU8jfSZ-1">
          <mxGeometry x="41" y="985" width="60" height="30" as="geometry" />
        </mxCell>
        <mxCell id="2fVoNbV49NTo3NU8jfSZ-31" value="Text" style="text;strokeColor=none;align=center;fillColor=none;html=1;verticalAlign=middle;whiteSpace=wrap;rounded=0;fontSize=16;" vertex="1" parent="2fVoNbV49NTo3NU8jfSZ-1">
          <mxGeometry x="41" y="1025" width="60" height="30" as="geometry" />
        </mxCell>
        <mxCell id="2fVoNbV49NTo3NU8jfSZ-33" value="Text" style="text;strokeColor=none;align=center;fillColor=none;html=1;verticalAlign=middle;whiteSpace=wrap;rounded=0;fontSize=16;" vertex="1" parent="2fVoNbV49NTo3NU8jfSZ-1">
          <mxGeometry x="41" y="1064" width="60" height="30" as="geometry" />
        </mxCell>
        <mxCell id="2fVoNbV49NTo3NU8jfSZ-34" value="&lt;font style=&quot;font-size: 16px;&quot;&gt;Text&lt;/font&gt;" style="text;strokeColor=none;align=center;fillColor=none;html=1;verticalAlign=middle;whiteSpace=wrap;rounded=0;" vertex="1" parent="2fVoNbV49NTo3NU8jfSZ-1">
          <mxGeometry x="210" y="945" width="60" height="30" as="geometry" />
        </mxCell>
        <mxCell id="2fVoNbV49NTo3NU8jfSZ-35" value="&lt;font style=&quot;font-size: 16px;&quot;&gt;Text&lt;/font&gt;" style="text;strokeColor=none;align=center;fillColor=none;html=1;verticalAlign=middle;whiteSpace=wrap;rounded=0;" vertex="1" parent="2fVoNbV49NTo3NU8jfSZ-1">
          <mxGeometry x="210" y="985" width="60" height="30" as="geometry" />
        </mxCell>
        <mxCell id="2fVoNbV49NTo3NU8jfSZ-36" value="&lt;font style=&quot;font-size: 16px;&quot;&gt;Text&lt;/font&gt;" style="text;strokeColor=none;align=center;fillColor=none;html=1;verticalAlign=middle;whiteSpace=wrap;rounded=0;" vertex="1" parent="2fVoNbV49NTo3NU8jfSZ-1">
          <mxGeometry x="210" y="1025" width="60" height="30" as="geometry" />
        </mxCell>
        <mxCell id="2fVoNbV49NTo3NU8jfSZ-37" value="&lt;font style=&quot;font-size: 16px;&quot;&gt;Text&lt;/font&gt;" style="text;strokeColor=none;align=center;fillColor=none;html=1;verticalAlign=middle;whiteSpace=wrap;rounded=0;" vertex="1" parent="2fVoNbV49NTo3NU8jfSZ-1">
          <mxGeometry x="210" y="1064" width="60" height="30" as="geometry" />
        </mxCell>
      </root>
    </mxGraphModel>
  </diagram>
</mxfile>
